<mxfile host="app.diagrams.net" agent="Mozilla/5.0 (Windows NT 10.0; Win64; x64; rv:132.0) Gecko/20100101 Firefox/132.0" version="24.8.8">
  <diagram name="Page-1" id="n2f0F_dpqC1D0QJt5zLc">
    <mxGraphModel dx="1486" dy="2521" grid="1" gridSize="10" guides="1" tooltips="1" connect="1" arrows="1" fold="1" page="1" pageScale="1" pageWidth="850" pageHeight="1100" math="0" shadow="0">
      <root>
        <mxCell id="0" />
        <mxCell id="1" parent="0" />
        <mxCell id="prXXR2PibG4hhnXOTKdj-2" value="" style="html=1;jettySize=18;whiteSpace=wrap;fontSize=13;strokeColor=#3a414a;strokeOpacity=100;strokeWidth=0.8;rounded=1;arcSize=12;edgeStyle=orthogonalEdgeStyle;startArrow=none;endArrow=block;endFill=1;exitX=1.002;exitY=0.5;exitPerimeter=0;entryX=-0.013;entryY=0.5;entryPerimeter=0;lucidId=pjetgG-RKikC;" edge="1" parent="1" source="prXXR2PibG4hhnXOTKdj-18">
          <mxGeometry width="100" height="100" relative="1" as="geometry">
            <Array as="points" />
            <mxPoint x="-240.77999999999997" y="-604" as="targetPoint" />
          </mxGeometry>
        </mxCell>
        <mxCell id="prXXR2PibG4hhnXOTKdj-3" value="Ref" style="text;html=1;resizable=0;labelBackgroundColor=default;align=center;verticalAlign=middle;fontStyle=1;fontColor=#333333;fontSize=13.3;" vertex="1" parent="prXXR2PibG4hhnXOTKdj-2">
          <mxGeometry x="0.21161199065069836" relative="1" as="geometry" />
        </mxCell>
        <mxCell id="prXXR2PibG4hhnXOTKdj-4" value="" style="html=1;overflow=block;blockSpacing=1;whiteSpace=wrap;fontSize=13;spacing=0;fillOpacity=40;fillColor=#019281;strokeWidth=1.5;strokeColor=none;lucidId=3bet.HmTBwfm;" vertex="1" parent="1">
          <mxGeometry x="-765" y="-135" width="450" height="315" as="geometry" />
        </mxCell>
        <mxCell id="prXXR2PibG4hhnXOTKdj-5" value="" style="html=1;overflow=block;blockSpacing=1;whiteSpace=wrap;shape=image;fontSize=13;spacing=0;strokeColor=none;strokeOpacity=100;rounded=1;absoluteArcSize=1;arcSize=9;strokeWidth=0;image=https://images.lucid.app/images/7b44d9b7-9895-4415-a723-c06263f22bdd/content;imageAspect=0;lucidId=M~dtMs-Tfs0C;" vertex="1" parent="1">
          <mxGeometry x="-735" y="-105" width="392" height="270" as="geometry" />
        </mxCell>
        <mxCell id="prXXR2PibG4hhnXOTKdj-6" value="state vector" style="html=1;overflow=block;blockSpacing=1;whiteSpace=wrap;fontSize=16.7;fontStyle=4;spacing=0;strokeColor=#unset;rounded=1;absoluteArcSize=1;arcSize=9;fillColor=#unset;strokeWidth=NaN;lucidId=kaetuD~kKfKh;" vertex="1" parent="1">
          <mxGeometry x="-645" y="-135" width="180" height="45" as="geometry" />
        </mxCell>
        <mxCell id="prXXR2PibG4hhnXOTKdj-10" value="" style="html=1;jettySize=18;whiteSpace=wrap;fontSize=13;strokeColor=#3a414a;strokeOpacity=100;strokeWidth=0.8;rounded=1;arcSize=12;edgeStyle=orthogonalEdgeStyle;startArrow=none;endArrow=block;endFill=1;exitX=-0.006;exitY=0.5;exitPerimeter=0;entryX=0.5;entryY=1;lucidId=7jet78UWVw5v;entryDx=0;entryDy=0;" edge="1" parent="1" source="prXXR2PibG4hhnXOTKdj-12" target="prXXR2PibG4hhnXOTKdj-64">
          <mxGeometry width="100" height="100" relative="1" as="geometry">
            <Array as="points">
              <mxPoint x="-215" y="-210" />
            </Array>
            <mxPoint x="-210" y="-573.2200000000003" as="targetPoint" />
          </mxGeometry>
        </mxCell>
        <mxCell id="prXXR2PibG4hhnXOTKdj-11" value="measured" style="text;html=1;resizable=0;labelBackgroundColor=default;align=center;verticalAlign=middle;fontStyle=1;fontColor=#333333;fontSize=13.3;" vertex="1" parent="prXXR2PibG4hhnXOTKdj-10">
          <mxGeometry x="0.39872084664636165" relative="1" as="geometry" />
        </mxCell>
        <mxCell id="prXXR2PibG4hhnXOTKdj-12" value="pixhawk measurments" style="html=1;overflow=block;blockSpacing=1;whiteSpace=wrap;fontSize=16.7;spacing=9;strokeColor=#unset;rounded=1;absoluteArcSize=1;arcSize=9;fillColor=#unset;strokeWidth=NaN;lucidId=xketGUvGLHrb;" vertex="1" parent="1">
          <mxGeometry x="90" y="-255" width="120" height="90" as="geometry" />
        </mxCell>
        <mxCell id="prXXR2PibG4hhnXOTKdj-13" value="" style="html=1;jettySize=18;whiteSpace=wrap;fontSize=13;strokeColor=#3a414a;strokeOpacity=100;strokeWidth=0.8;rounded=1;arcSize=12;edgeStyle=orthogonalEdgeStyle;startArrow=none;endArrow=block;endFill=1;entryX=-0.003;entryY=0.5;entryPerimeter=0;lucidId=uoetCV0IRE5H;exitX=1;exitY=0.5;exitDx=0;exitDy=0;" edge="1" parent="1" source="prXXR2PibG4hhnXOTKdj-64">
          <mxGeometry width="100" height="100" relative="1" as="geometry">
            <Array as="points" />
            <mxPoint x="-170" y="-610" as="sourcePoint" />
            <mxPoint x="-50.809999999999945" y="-615" as="targetPoint" />
          </mxGeometry>
        </mxCell>
        <mxCell id="prXXR2PibG4hhnXOTKdj-14" value="Error/Delta" style="text;html=1;resizable=0;labelBackgroundColor=default;align=center;verticalAlign=middle;fontStyle=1;fontColor=#333333;fontSize=13.3;" vertex="1" parent="prXXR2PibG4hhnXOTKdj-13">
          <mxGeometry x="-0.21690464152347821" relative="1" as="geometry" />
        </mxCell>
        <mxCell id="prXXR2PibG4hhnXOTKdj-17" value="" style="html=1;overflow=block;blockSpacing=1;whiteSpace=wrap;shape=image;fontSize=13;spacing=0;strokeColor=none;strokeOpacity=100;rounded=1;absoluteArcSize=1;arcSize=9;strokeWidth=0;image=https://images.lucid.app/images/01029344-daa3-4cee-b728-da55d072090a/content;imageAspect=0;lucidId=Yvet~17-k-2h;" vertex="1" parent="1">
          <mxGeometry x="345" y="-701" width="184" height="90" as="geometry" />
        </mxCell>
        <mxCell id="prXXR2PibG4hhnXOTKdj-18" value="" style="html=1;overflow=block;blockSpacing=1;whiteSpace=wrap;fontSize=13;spacing=9;rounded=1;absoluteArcSize=1;arcSize=9;strokeWidth=NaN;lucidId=zwet6JKenKSA;container=1;collapsible=0;" vertex="1" parent="1">
          <mxGeometry x="-800" y="-685" width="375" height="161" as="geometry" />
        </mxCell>
        <mxCell id="prXXR2PibG4hhnXOTKdj-19" value="" style="html=1;overflow=block;blockSpacing=1;whiteSpace=wrap;shape=image;fontSize=13;spacing=0;strokeColor=none;strokeOpacity=100;rounded=1;absoluteArcSize=1;arcSize=9;strokeWidth=0;image=https://images.lucid.app/images/fe2ea840-0298-4867-a670-a9dc1a8532f5/content;imageAspect=0;lucidId=yietzDVqgzS5;" vertex="1" parent="prXXR2PibG4hhnXOTKdj-18">
          <mxGeometry x="7.5" y="46.5" width="360" height="111" as="geometry" />
        </mxCell>
        <mxCell id="prXXR2PibG4hhnXOTKdj-63" value="&lt;font style=&quot;font-size: 22px;&quot;&gt;Reference&lt;/font&gt;" style="text;html=1;align=center;verticalAlign=middle;resizable=0;points=[];autosize=1;strokeColor=none;fillColor=none;" vertex="1" parent="prXXR2PibG4hhnXOTKdj-18">
          <mxGeometry x="122.5" y="6.5" width="130" height="40" as="geometry" />
        </mxCell>
        <mxCell id="prXXR2PibG4hhnXOTKdj-25" value="" style="html=1;jettySize=18;whiteSpace=wrap;fontSize=13;strokeColor=#3a414a;strokeOpacity=100;strokeWidth=0.8;rounded=1;arcSize=12;edgeStyle=orthogonalEdgeStyle;startArrow=none;endArrow=block;endFill=1;exitX=1;exitY=0.5;exitPerimeter=0;entryX=-0.004;entryY=0.5;entryPerimeter=0;lucidId=rDetA~9Te89j;" edge="1" parent="1" source="prXXR2PibG4hhnXOTKdj-17" target="prXXR2PibG4hhnXOTKdj-40">
          <mxGeometry width="100" height="100" relative="1" as="geometry">
            <Array as="points" />
          </mxGeometry>
        </mxCell>
        <mxCell id="prXXR2PibG4hhnXOTKdj-26" value="" style="html=1;jettySize=18;whiteSpace=wrap;fontSize=13;strokeColor=#3a414a;strokeOpacity=100;strokeWidth=0.8;rounded=1;arcSize=12;edgeStyle=orthogonalEdgeStyle;startArrow=none;endArrow=block;endFill=1;entryX=-0.003;entryY=0.5;entryPerimeter=0;lucidId=rDetyD4VoaKn;" edge="1" parent="1" target="prXXR2PibG4hhnXOTKdj-38">
          <mxGeometry width="100" height="100" relative="1" as="geometry">
            <Array as="points">
              <mxPoint x="556" y="-620" />
            </Array>
            <mxPoint x="556" y="-656" as="sourcePoint" />
          </mxGeometry>
        </mxCell>
        <mxCell id="prXXR2PibG4hhnXOTKdj-27" value="" style="html=1;overflow=block;blockSpacing=1;whiteSpace=wrap;shape=image;fontSize=13;spacing=0;strokeColor=none;strokeOpacity=100;rounded=1;absoluteArcSize=1;arcSize=9;strokeWidth=0;image=https://images.lucid.app/images/20a82f16-ee72-40ab-9c04-8e971c2afa11/content;imageAspect=0;lucidId=_eftziFUTHap;" vertex="1" parent="1">
          <mxGeometry x="-285" y="-70" width="401" height="250" as="geometry" />
        </mxCell>
        <mxCell id="prXXR2PibG4hhnXOTKdj-28" value="" style="html=1;overflow=block;blockSpacing=1;whiteSpace=wrap;fontSize=13;spacing=9;strokeOpacity=0;fillOpacity=100;rounded=1;absoluteArcSize=1;arcSize=9;fillColor=#fffeec;strokeWidth=1.5;lucidId=8ifta6IlkKkd;container=1;collapsible=0;" vertex="1" parent="1">
          <mxGeometry x="525" y="-1022" width="315" height="204" as="geometry" />
        </mxCell>
        <mxCell id="prXXR2PibG4hhnXOTKdj-29" value="" style="html=1;overflow=block;blockSpacing=1;whiteSpace=wrap;shape=image;fontSize=13;spacing=0;strokeColor=none;strokeOpacity=100;rounded=1;absoluteArcSize=1;arcSize=9;strokeWidth=0;image=https://images.lucid.app/images/71cef820-0e37-43dc-b014-429911fe8e06/content;imageAspect=0;lucidId=-Fet5Ly-gNZe;" vertex="1" parent="prXXR2PibG4hhnXOTKdj-28">
          <mxGeometry x="60" y="132" width="180" height="58" as="geometry" />
        </mxCell>
        <mxCell id="prXXR2PibG4hhnXOTKdj-30" value="" style="html=1;overflow=block;blockSpacing=1;whiteSpace=wrap;shape=image;fontSize=13;spacing=0;strokeColor=none;rounded=1;absoluteArcSize=1;arcSize=9;strokeWidth=0;image=https://images.lucid.app/images/af7ed0a4-8d21-472f-a9ac-d09a6c3ccd3d/content;imageAspect=0;lucidId=daft0~lI4JD-;" vertex="1" parent="prXXR2PibG4hhnXOTKdj-28">
          <mxGeometry x="15" y="81" width="135" height="39" as="geometry" />
        </mxCell>
        <mxCell id="prXXR2PibG4hhnXOTKdj-31" value="" style="html=1;overflow=block;blockSpacing=1;whiteSpace=wrap;shape=image;fontSize=13;spacing=0;strokeColor=none;rounded=1;absoluteArcSize=1;arcSize=9;strokeWidth=0;image=https://images.lucid.app/images/17f199d1-e63e-4849-988d-1745f9e04caf/content;imageAspect=0;lucidId=Daft5_WTvuMS;" vertex="1" parent="prXXR2PibG4hhnXOTKdj-28">
          <mxGeometry x="15" y="22" width="135" height="59" as="geometry" />
        </mxCell>
        <mxCell id="prXXR2PibG4hhnXOTKdj-32" value="" style="html=1;overflow=block;blockSpacing=1;whiteSpace=wrap;shape=image;fontSize=13;spacing=0;strokeColor=none;strokeOpacity=100;rounded=1;absoluteArcSize=1;arcSize=9;strokeWidth=0;image=https://images.lucid.app/images/3ad522dc-9581-4647-836c-550ee6ce0f21/content;imageAspect=0;lucidId=3dftiNzfEtZk;" vertex="1" parent="prXXR2PibG4hhnXOTKdj-28">
          <mxGeometry x="180" y="60" width="120" height="72" as="geometry" />
        </mxCell>
        <mxCell id="prXXR2PibG4hhnXOTKdj-33" value="" style="html=1;overflow=block;blockSpacing=1;whiteSpace=wrap;shape=image;fontSize=13;spacing=0;strokeColor=none;strokeOpacity=100;rounded=1;absoluteArcSize=1;arcSize=9;strokeWidth=0;image=https://images.lucid.app/images/ebaa855c-c641-42c1-a290-10a9f411ff31/content;imageAspect=0;lucidId=niftn1aeXbw2;" vertex="1" parent="prXXR2PibG4hhnXOTKdj-28">
          <mxGeometry x="195" y="30" width="105" height="27" as="geometry" />
        </mxCell>
        <mxCell id="prXXR2PibG4hhnXOTKdj-34" value="" style="html=1;jettySize=18;whiteSpace=wrap;fontSize=13;strokeColor=#3a414a;strokeOpacity=100;strokeWidth=0.8;rounded=1;arcSize=12;edgeStyle=orthogonalEdgeStyle;startArrow=none;endArrow=block;endFill=1;exitX=0.5;exitY=1;exitPerimeter=0;entryX=0.5;entryY=-0.012;entryPerimeter=0;lucidId=BlftLegUr~oP;" edge="1" parent="1" source="prXXR2PibG4hhnXOTKdj-28" target="prXXR2PibG4hhnXOTKdj-40">
          <mxGeometry width="100" height="100" relative="1" as="geometry">
            <Array as="points" />
          </mxGeometry>
        </mxCell>
        <mxCell id="prXXR2PibG4hhnXOTKdj-35" value="" style="group;dropTarget=0;pointerEvents=0;" vertex="1" parent="1">
          <mxGeometry x="593" y="-733" width="150" height="48" as="geometry" />
        </mxCell>
        <mxCell id="prXXR2PibG4hhnXOTKdj-36" value="" style="html=1;overflow=block;blockSpacing=1;whiteSpace=wrap;shape=image;fontSize=13;spacing=0;strokeColor=none;strokeOpacity=100;rounded=1;absoluteArcSize=1;arcSize=9;strokeWidth=0;image=https://images.lucid.app/images/84308bc0-e8da-483d-b3e2-83c1991bc2d1/content;imageAspect=0;lucidId=9Cetr94VgOwR;" vertex="1" parent="prXXR2PibG4hhnXOTKdj-35">
          <mxGeometry y="3" width="150" height="41" as="geometry" />
        </mxCell>
        <mxCell id="prXXR2PibG4hhnXOTKdj-37" value="" style="html=1;overflow=block;blockSpacing=1;whiteSpace=wrap;fontSize=13;spacing=9;strokeColor=#fe7070;strokeOpacity=100;fillOpacity=0;rounded=1;absoluteArcSize=1;arcSize=9;fillColor=#000000;strokeWidth=1.5;lucidId=FkftAfynF6st;" vertex="1" parent="prXXR2PibG4hhnXOTKdj-35">
          <mxGeometry x="60" width="45" height="48" as="geometry" />
        </mxCell>
        <mxCell id="prXXR2PibG4hhnXOTKdj-38" value="" style="html=1;overflow=block;blockSpacing=1;whiteSpace=wrap;fontSize=13;spacing=3.8;strokeColor=#unset;rounded=1;absoluteArcSize=1;arcSize=9;fillColor=#unset;strokeWidth=NaN;lucidId=adktModx73zr;container=1;collapsible=0;" vertex="1" parent="1">
          <mxGeometry x="585" y="-660" width="270" height="80" as="geometry" />
        </mxCell>
        <mxCell id="prXXR2PibG4hhnXOTKdj-39" value="" style="html=1;overflow=block;blockSpacing=1;whiteSpace=wrap;shape=image;fontSize=13;spacing=0;strokeColor=none;strokeOpacity=100;rounded=1;absoluteArcSize=1;arcSize=9;strokeWidth=0;image=https://images.lucid.app/images/ccb28516-8b32-49a3-b933-566da058702f/content;imageAspect=0;lucidId=VvftWNFcxiKd;" vertex="1" parent="prXXR2PibG4hhnXOTKdj-38">
          <mxGeometry x="15" y="13" width="240" height="56" as="geometry" />
        </mxCell>
        <mxCell id="prXXR2PibG4hhnXOTKdj-40" value="" style="html=1;overflow=block;blockSpacing=1;whiteSpace=wrap;fontSize=13;spacing=3.8;strokeColor=#unset;rounded=1;absoluteArcSize=1;arcSize=9;fillColor=#unset;strokeWidth=NaN;lucidId=FektNh_KM1zV;container=1;collapsible=0;" vertex="1" parent="1">
          <mxGeometry x="585" y="-741" width="180" height="63" as="geometry" />
        </mxCell>
        <mxCell id="prXXR2PibG4hhnXOTKdj-41" value="" style="html=1;jettySize=18;whiteSpace=wrap;fontSize=13;strokeColor=#3a414a;strokeOpacity=100;strokeWidth=0.8;rounded=1;arcSize=12;edgeStyle=orthogonalEdgeStyle;startArrow=none;endArrow=block;endFill=1;exitX=1.003;exitY=0.5;exitPerimeter=0;entryX=0;entryY=0.5;entryPerimeter=0;lucidId=0fktbbCDVT2M;" edge="1" parent="1" source="prXXR2PibG4hhnXOTKdj-38" target="prXXR2PibG4hhnXOTKdj-43">
          <mxGeometry width="100" height="100" relative="1" as="geometry">
            <Array as="points" />
          </mxGeometry>
        </mxCell>
        <mxCell id="prXXR2PibG4hhnXOTKdj-42" value="" style="html=1;jettySize=18;whiteSpace=wrap;fontSize=13;strokeColor=#3a414a;strokeOpacity=100;strokeWidth=0.8;rounded=1;arcSize=12;edgeStyle=orthogonalEdgeStyle;startArrow=none;endArrow=block;endFill=1;exitX=1.004;exitY=0.5;exitPerimeter=0;lucidId=cgktRWfJESS~;" edge="1" parent="1" source="prXXR2PibG4hhnXOTKdj-40">
          <mxGeometry width="100" height="100" relative="1" as="geometry">
            <Array as="points" />
            <mxPoint x="886" y="-620" as="targetPoint" />
          </mxGeometry>
        </mxCell>
        <mxCell id="prXXR2PibG4hhnXOTKdj-43" value="" style="html=1;overflow=block;blockSpacing=1;whiteSpace=wrap;shape=image;fontSize=13;spacing=0;strokeColor=none;strokeOpacity=100;rounded=1;absoluteArcSize=1;arcSize=9;strokeWidth=0;image=https://images.lucid.app/images/644f6c5c-1791-470b-95c5-e4ab66affad3/content;imageAspect=0;lucidId=JgktC1eq5qaf;" vertex="1" parent="1">
          <mxGeometry x="930" y="-673" width="78" height="107" as="geometry" />
        </mxCell>
        <mxCell id="prXXR2PibG4hhnXOTKdj-44" value="" style="html=1;jettySize=18;whiteSpace=wrap;fontSize=13;strokeColor=#3a414a;strokeOpacity=100;strokeWidth=0.8;rounded=1;arcSize=12;edgeStyle=orthogonalEdgeStyle;startArrow=none;endArrow=block;endFill=1;exitX=0.97;exitY=0.5;exitPerimeter=0;entryX=-0.002;entryY=0.5;entryPerimeter=0;lucidId=ihktWQGkeRXZ;" edge="1" parent="1" source="prXXR2PibG4hhnXOTKdj-43" target="prXXR2PibG4hhnXOTKdj-46">
          <mxGeometry width="100" height="100" relative="1" as="geometry">
            <Array as="points" />
          </mxGeometry>
        </mxCell>
        <mxCell id="prXXR2PibG4hhnXOTKdj-45" value="control command  u" style="text;html=1;resizable=0;labelBackgroundColor=default;align=center;verticalAlign=middle;fontStyle=1;fontColor=#333333;fontSize=13.3;" vertex="1" parent="prXXR2PibG4hhnXOTKdj-44">
          <mxGeometry x="-0.12520990736074455" relative="1" as="geometry" />
        </mxCell>
        <mxCell id="prXXR2PibG4hhnXOTKdj-46" value="" style="html=1;overflow=block;blockSpacing=1;whiteSpace=wrap;fontSize=13;spacing=3.8;strokeColor=#unset;rounded=1;absoluteArcSize=1;arcSize=9;fillColor=#unset;strokeWidth=NaN;lucidId=rkktKtaw-jI-;container=1;collapsible=0;" vertex="1" parent="1">
          <mxGeometry x="1184" y="-664" width="360" height="91" as="geometry" />
        </mxCell>
        <mxCell id="prXXR2PibG4hhnXOTKdj-47" value="" style="html=1;overflow=block;blockSpacing=1;whiteSpace=wrap;shape=image;fontSize=13;spacing=0;strokeColor=none;strokeOpacity=100;rounded=1;absoluteArcSize=1;arcSize=9;strokeWidth=0;image=https://images.lucid.app/images/548d7ed2-4078-439b-a6de-2c299947749d/content;imageAspect=0;lucidId=pnktww_N32YS;" vertex="1" parent="prXXR2PibG4hhnXOTKdj-46">
          <mxGeometry x="15" y="46" width="329" height="28" as="geometry" />
        </mxCell>
        <mxCell id="prXXR2PibG4hhnXOTKdj-48" value="Dynamics" style="html=1;overflow=block;blockSpacing=1;whiteSpace=wrap;fontSize=16.7;spacing=0;strokeColor=#unset;rounded=1;absoluteArcSize=1;arcSize=9;fillColor=#unset;strokeWidth=NaN;lucidId=UnktWv8YYLsp;" vertex="1" parent="prXXR2PibG4hhnXOTKdj-46">
          <mxGeometry x="90" y="1" width="180" height="45" as="geometry" />
        </mxCell>
        <mxCell id="prXXR2PibG4hhnXOTKdj-49" value="" style="html=1;jettySize=18;whiteSpace=wrap;fontSize=13;strokeColor=#3a414a;strokeOpacity=100;dashed=1;fixDash=1;dashPattern=6 5;strokeWidth=0.8;rounded=1;arcSize=12;edgeStyle=orthogonalEdgeStyle;startArrow=none;exitX=0.527;exitY=0;exitPerimeter=0;lucidId=yoktscWsZ0of;" edge="1" parent="1" source="prXXR2PibG4hhnXOTKdj-48">
          <mxGeometry width="100" height="100" relative="1" as="geometry">
            <Array as="points" />
            <mxPoint x="1365" y="-1020" as="targetPoint" />
          </mxGeometry>
        </mxCell>
        <mxCell id="prXXR2PibG4hhnXOTKdj-50" value="" style="html=1;overflow=block;blockSpacing=1;whiteSpace=wrap;fontSize=13;spacing=9;strokeOpacity=0;fillOpacity=100;rounded=1;absoluteArcSize=1;arcSize=9;fillColor=#fffeec;strokeWidth=1.5;lucidId=mvktxyev0DAy;container=1;collapsible=0;" vertex="1" parent="1">
          <mxGeometry x="180" y="-1470" width="450" height="195" as="geometry" />
        </mxCell>
        <mxCell id="prXXR2PibG4hhnXOTKdj-51" value="" style="html=1;overflow=block;blockSpacing=1;whiteSpace=wrap;shape=image;fontSize=13;spacing=0;strokeColor=none;strokeOpacity=100;rounded=1;absoluteArcSize=1;arcSize=9;strokeWidth=0;image=https://images.lucid.app/images/5925a73c-a50b-4278-b5e7-33588b290d65/content;imageAspect=0;lucidId=Fvktwi2giHgQ;" vertex="1" parent="prXXR2PibG4hhnXOTKdj-50">
          <mxGeometry x="135" y="15" width="309" height="102" as="geometry" />
        </mxCell>
        <mxCell id="prXXR2PibG4hhnXOTKdj-52" value="" style="html=1;overflow=block;blockSpacing=1;whiteSpace=wrap;shape=image;fontSize=13;spacing=0;strokeColor=none;strokeOpacity=100;rounded=1;absoluteArcSize=1;arcSize=9;strokeWidth=0;image=https://images.lucid.app/images/712dc11d-055c-4fb4-852e-8a67d046d351/content;imageAspect=0;lucidId=Rxktb0A9Zn34;" vertex="1" parent="prXXR2PibG4hhnXOTKdj-50">
          <mxGeometry x="180" y="135" width="154" height="58" as="geometry" />
        </mxCell>
        <mxCell id="prXXR2PibG4hhnXOTKdj-53" value="" style="html=1;jettySize=18;whiteSpace=wrap;fontSize=13;strokeColor=#3a414a;strokeOpacity=100;strokeWidth=0.8;rounded=1;arcSize=12;edgeStyle=orthogonalEdgeStyle;startArrow=none;endArrow=block;endFill=1;lucidId=iyktygPWaCwh;" edge="1" parent="prXXR2PibG4hhnXOTKdj-50">
          <mxGeometry width="100" height="100" relative="1" as="geometry">
            <Array as="points" />
            <mxPoint x="127" y="107" as="sourcePoint" />
            <mxPoint x="127" y="25" as="targetPoint" />
          </mxGeometry>
        </mxCell>
        <mxCell id="prXXR2PibG4hhnXOTKdj-54" value="Z" style="text;html=1;resizable=0;labelBackgroundColor=default;align=center;verticalAlign=middle;fontStyle=1;fontColor=#333333;fontSize=13.3;" vertex="1" parent="prXXR2PibG4hhnXOTKdj-53">
          <mxGeometry x="0.22583956211466982" relative="1" as="geometry" />
        </mxCell>
        <mxCell id="prXXR2PibG4hhnXOTKdj-55" value="" style="html=1;jettySize=18;whiteSpace=wrap;fontSize=13;strokeColor=#3a414a;strokeOpacity=100;strokeWidth=0.8;rounded=1;arcSize=12;edgeStyle=orthogonalEdgeStyle;startArrow=none;endArrow=block;endFill=1;lucidId=vykt.RaV9F9p;" edge="1" parent="prXXR2PibG4hhnXOTKdj-50">
          <mxGeometry width="100" height="100" relative="1" as="geometry">
            <Array as="points" />
            <mxPoint x="127" y="107" as="sourcePoint" />
            <mxPoint x="15" y="107" as="targetPoint" />
          </mxGeometry>
        </mxCell>
        <mxCell id="prXXR2PibG4hhnXOTKdj-56" value="X" style="text;html=1;resizable=0;labelBackgroundColor=default;align=center;verticalAlign=middle;fontStyle=1;fontColor=#333333;fontSize=13.3;" vertex="1" parent="prXXR2PibG4hhnXOTKdj-55">
          <mxGeometry x="0.22641110105704776" relative="1" as="geometry" />
        </mxCell>
        <mxCell id="prXXR2PibG4hhnXOTKdj-57" value="" style="html=1;overflow=block;blockSpacing=1;whiteSpace=wrap;fontSize=13;spacing=9;strokeOpacity=0;fillOpacity=100;rounded=1;absoluteArcSize=1;arcSize=9;fillColor=#fffeec;strokeWidth=1.5;lucidId=pAkt4OJY_GvN;" vertex="1" parent="1">
          <mxGeometry x="690" y="-1455" width="855" height="195" as="geometry" />
        </mxCell>
        <mxCell id="prXXR2PibG4hhnXOTKdj-58" value="" style="group;dropTarget=0;pointerEvents=0;" vertex="1" parent="1">
          <mxGeometry x="698" y="-1320" width="348" height="49" as="geometry" />
        </mxCell>
        <mxCell id="prXXR2PibG4hhnXOTKdj-59" value="" style="html=1;overflow=block;blockSpacing=1;whiteSpace=wrap;shape=image;fontSize=13;spacing=0;strokeColor=none;strokeOpacity=100;rounded=1;absoluteArcSize=1;arcSize=9;strokeWidth=0;image=https://images.lucid.app/images/6ed1b684-0fec-4dc9-be25-7a435381522d/content;imageAspect=0;lucidId=QDkt4-AhcIS.;" vertex="1" parent="prXXR2PibG4hhnXOTKdj-58">
          <mxGeometry x="39" width="309" height="49" as="geometry" />
        </mxCell>
        <mxCell id="prXXR2PibG4hhnXOTKdj-60" value="" style="html=1;overflow=block;blockSpacing=1;whiteSpace=wrap;shape=image;fontSize=13;spacing=0;strokeColor=none;strokeOpacity=100;rounded=1;absoluteArcSize=1;arcSize=9;strokeWidth=0;image=https://images.lucid.app/images/82fd0ef7-f8e4-4186-9f34-c9054d06b799/content;imageAspect=0;lucidId=fKktPRAuMUwH;" vertex="1" parent="prXXR2PibG4hhnXOTKdj-58">
          <mxGeometry y="12" width="39" height="21" as="geometry" />
        </mxCell>
        <mxCell id="prXXR2PibG4hhnXOTKdj-61" value="" style="html=1;overflow=block;blockSpacing=1;whiteSpace=wrap;shape=image;fontSize=13;spacing=0;strokeColor=none;strokeOpacity=100;rounded=1;absoluteArcSize=1;arcSize=9;strokeWidth=0;image=https://images.lucid.app/images/3c640a7f-6bc9-4da9-bbc3-d5059afea9ed/content;imageAspect=0;lucidId=kNkt0C~3~5Mp;" vertex="1" parent="1">
          <mxGeometry x="698" y="-1401" width="371" height="57" as="geometry" />
        </mxCell>
        <UserObject label="" id="prXXR2PibG4hhnXOTKdj-68">
          <mxCell style="group" vertex="1" connectable="0" parent="1">
            <mxGeometry x="-240" y="-640" width="60" height="60" as="geometry" />
          </mxCell>
        </UserObject>
        <mxCell id="prXXR2PibG4hhnXOTKdj-71" value="" style="group" vertex="1" connectable="0" parent="prXXR2PibG4hhnXOTKdj-68">
          <mxGeometry x="-20" width="75" height="50" as="geometry" />
        </mxCell>
        <mxCell id="prXXR2PibG4hhnXOTKdj-72" value="" style="group" vertex="1" connectable="0" parent="prXXR2PibG4hhnXOTKdj-71">
          <mxGeometry width="70" height="50" as="geometry" />
        </mxCell>
        <mxCell id="prXXR2PibG4hhnXOTKdj-64" value="" style="ellipse;whiteSpace=wrap;html=1;aspect=fixed;" vertex="1" parent="prXXR2PibG4hhnXOTKdj-72">
          <mxGeometry x="20" width="50" height="50" as="geometry" />
        </mxCell>
        <mxCell id="prXXR2PibG4hhnXOTKdj-69" value="+" style="text;html=1;align=center;verticalAlign=middle;whiteSpace=wrap;rounded=0;" vertex="1" parent="prXXR2PibG4hhnXOTKdj-72">
          <mxGeometry y="10" width="60" height="30" as="geometry" />
        </mxCell>
        <mxCell id="prXXR2PibG4hhnXOTKdj-70" value="-" style="text;html=1;align=center;verticalAlign=middle;whiteSpace=wrap;rounded=0;" vertex="1" parent="prXXR2PibG4hhnXOTKdj-72">
          <mxGeometry x="40" y="31" width="10" height="10" as="geometry" />
        </mxCell>
        <mxCell id="prXXR2PibG4hhnXOTKdj-65" value="" style="endArrow=none;html=1;rounded=0;exitX=0;exitY=1;exitDx=0;exitDy=0;entryX=0.838;entryY=0.14;entryDx=0;entryDy=0;entryPerimeter=0;" edge="1" parent="prXXR2PibG4hhnXOTKdj-72" source="prXXR2PibG4hhnXOTKdj-64" target="prXXR2PibG4hhnXOTKdj-64">
          <mxGeometry width="50" height="50" relative="1" as="geometry">
            <mxPoint x="-94.75" y="-50.25" as="sourcePoint" />
            <mxPoint x="-57.25" y="-87.75" as="targetPoint" />
          </mxGeometry>
        </mxCell>
        <mxCell id="prXXR2PibG4hhnXOTKdj-67" value="" style="endArrow=none;html=1;rounded=0;exitX=0;exitY=0;exitDx=0;exitDy=0;entryX=1;entryY=1;entryDx=0;entryDy=0;" edge="1" parent="prXXR2PibG4hhnXOTKdj-72" source="prXXR2PibG4hhnXOTKdj-64" target="prXXR2PibG4hhnXOTKdj-64">
          <mxGeometry width="50" height="50" relative="1" as="geometry">
            <mxPoint x="-91" y="-37.5" as="sourcePoint" />
            <mxPoint x="72.5" y="49.5" as="targetPoint" />
          </mxGeometry>
        </mxCell>
        <mxCell id="prXXR2PibG4hhnXOTKdj-76" value="" style="group" vertex="1" connectable="0" parent="1">
          <mxGeometry x="-20" y="-670" width="280" height="130" as="geometry" />
        </mxCell>
        <mxCell id="prXXR2PibG4hhnXOTKdj-73" value="" style="rounded=0;whiteSpace=wrap;html=1;" vertex="1" parent="prXXR2PibG4hhnXOTKdj-76">
          <mxGeometry width="280" height="130" as="geometry" />
        </mxCell>
        <mxCell id="prXXR2PibG4hhnXOTKdj-23" value="" style="html=1;overflow=block;blockSpacing=1;whiteSpace=wrap;shape=image;fontSize=13;spacing=0;strokeColor=none;strokeOpacity=100;rounded=1;absoluteArcSize=1;arcSize=9;strokeWidth=0;image=https://images.lucid.app/images/9c0eb237-1370-4186-9349-79b5f40e5813/content;lucidId=wzetvrjOAH8t;" vertex="1" parent="prXXR2PibG4hhnXOTKdj-76">
          <mxGeometry x="10" y="24" width="259" height="106" as="geometry" />
        </mxCell>
        <mxCell id="prXXR2PibG4hhnXOTKdj-74" value="&lt;font style=&quot;font-size: 22px;&quot;&gt;&lt;span data-lucid-content=&quot;{&amp;quot;t&amp;quot;:&amp;quot;controller&amp;quot;,&amp;quot;m&amp;quot;:[{&amp;quot;s&amp;quot;:0,&amp;quot;n&amp;quot;:&amp;quot;s&amp;quot;,&amp;quot;v&amp;quot;:22.22222222222222,&amp;quot;e&amp;quot;:10},{&amp;quot;s&amp;quot;:0,&amp;quot;n&amp;quot;:&amp;quot;fsp&amp;quot;,&amp;quot;v&amp;quot;:&amp;quot;ss_presetShapeStyle1_textStyle&amp;quot;,&amp;quot;e&amp;quot;:10},{&amp;quot;s&amp;quot;:0,&amp;quot;n&amp;quot;:&amp;quot;fsp2&amp;quot;,&amp;quot;v&amp;quot;:&amp;quot;ss_presetShapeStyle1_textStyle&amp;quot;,&amp;quot;e&amp;quot;:10}]}&quot; data-lucid-type=&quot;application/vnd.lucid.text&quot;&gt;&lt;span style=&quot;color: rgb(0, 0, 0);&quot;&gt;controller&lt;/span&gt;&lt;/span&gt;&lt;/font&gt;" style="text;html=1;align=center;verticalAlign=middle;whiteSpace=wrap;rounded=0;" vertex="1" parent="prXXR2PibG4hhnXOTKdj-76">
          <mxGeometry x="120" width="60" height="30" as="geometry" />
        </mxCell>
        <mxCell id="prXXR2PibG4hhnXOTKdj-78" style="edgeStyle=orthogonalEdgeStyle;rounded=0;orthogonalLoop=1;jettySize=auto;html=1;exitX=0.329;exitY=0.533;exitDx=0;exitDy=0;exitPerimeter=0;" edge="1" parent="1" source="prXXR2PibG4hhnXOTKdj-79">
          <mxGeometry relative="1" as="geometry">
            <mxPoint x="320" y="-550" as="sourcePoint" />
            <mxPoint x="480" y="-560" as="targetPoint" />
            <Array as="points">
              <mxPoint x="320" y="-560" />
              <mxPoint x="447" y="-560" />
            </Array>
          </mxGeometry>
        </mxCell>
        <mxCell id="prXXR2PibG4hhnXOTKdj-80" value="" style="edgeStyle=orthogonalEdgeStyle;rounded=0;orthogonalLoop=1;jettySize=auto;html=1;exitX=1;exitY=0.5;exitDx=0;exitDy=0;entryDx=0;entryDy=0;" edge="1" parent="1" source="prXXR2PibG4hhnXOTKdj-73" target="prXXR2PibG4hhnXOTKdj-79">
          <mxGeometry relative="1" as="geometry">
            <mxPoint x="260" y="-605" as="sourcePoint" />
            <mxPoint x="345" y="-656" as="targetPoint" />
            <Array as="points" />
          </mxGeometry>
        </mxCell>
        <mxCell id="prXXR2PibG4hhnXOTKdj-81" value="" style="edgeStyle=orthogonalEdgeStyle;rounded=0;orthogonalLoop=1;jettySize=auto;html=1;" edge="1" parent="1" source="prXXR2PibG4hhnXOTKdj-79" target="prXXR2PibG4hhnXOTKdj-17">
          <mxGeometry relative="1" as="geometry">
            <Array as="points">
              <mxPoint x="320" y="-656" />
            </Array>
          </mxGeometry>
        </mxCell>
        <mxCell id="prXXR2PibG4hhnXOTKdj-79" value="" style="shape=waypoint;sketch=0;fillStyle=solid;size=6;pointerEvents=1;points=[];fillColor=none;resizable=0;rotatable=0;perimeter=centerPerimeter;snapToPoint=1;" vertex="1" parent="1">
          <mxGeometry x="310" y="-615" width="20" height="20" as="geometry" />
        </mxCell>
      </root>
    </mxGraphModel>
  </diagram>
</mxfile>
